<svg xmlns="http://www.w3.org/2000/svg" xmlns:xlink="http://www.w3.org/1999/xlink" width="375" height="415" viewBox="0 0 375 415">
  <defs>
    <clipPath id="clip-path">
      <rect id="Rectangle_326" data-name="Rectangle 326" width="375" height="69" transform="translate(0 663)" fill="#fff" stroke="#707070" stroke-width="1"/>
    </clipPath>
    <clipPath id="clip-path-2">
      <rect id="Rectangle_334" data-name="Rectangle 334" width="375" height="176" transform="translate(0 193)" fill="#fff"/>
    </clipPath>
    <clipPath id="clip-_01">
      <rect width="375" height="415"/>
    </clipPath>
  </defs>
  <g id="_01" data-name="01" clip-path="url(#clip-_01)">
    <rect id="Rectangle_305" data-name="Rectangle 305" width="375" height="176" transform="translate(0 193)" fill="#fff"/>
    <g id="Ellipse_2" data-name="Ellipse 2" transform="translate(65 252)" fill="none" stroke="#ebe8de" stroke-width="3">
      <ellipse cx="71.5" cy="26" rx="71.5" ry="26" stroke="none"/>
      <ellipse cx="71.5" cy="26" rx="70" ry="24.5" fill="none"/>
    </g>
    <g id="Ellipse_7" data-name="Ellipse 7" transform="translate(272.747 212.908)" fill="none" stroke="#ebe8de" stroke-width="3">
      <ellipse cx="49.753" cy="18.092" rx="49.753" ry="18.092" stroke="none"/>
      <ellipse cx="49.753" cy="18.092" rx="48.253" ry="16.592" fill="none"/>
    </g>
    <g id="Ellipse_3" data-name="Ellipse 3" transform="translate(45 245)" fill="none" stroke="#ebe8de" stroke-width="3">
      <ellipse cx="91.5" cy="34.5" rx="91.5" ry="34.5" stroke="none"/>
      <ellipse cx="91.5" cy="34.5" rx="90" ry="33" fill="none"/>
    </g>
    <g id="Ellipse_5" data-name="Ellipse 5" transform="translate(258.829 208.037)" fill="none" stroke="#ebe8de" stroke-width="3">
      <ellipse cx="63.671" cy="23.963" rx="63.671" ry="23.963" stroke="none"/>
      <ellipse cx="63.671" cy="23.963" rx="62.171" ry="22.463" fill="none"/>
    </g>
    <g id="Ellipse_4" data-name="Ellipse 4" transform="translate(28 238)" fill="none" stroke="#ebe8de" stroke-width="3">
      <ellipse cx="108.5" cy="43" rx="108.5" ry="43" stroke="none"/>
      <ellipse cx="108.5" cy="43" rx="107" ry="41.5" fill="none"/>
    </g>
    <g id="Ellipse_6" data-name="Ellipse 6" transform="translate(247 203.166)" fill="none" stroke="#ebe8de" stroke-width="3">
      <ellipse cx="75.5" cy="30.834" rx="75.5" ry="30.834" stroke="none"/>
      <ellipse cx="75.5" cy="30.834" rx="74" ry="29.334" fill="none"/>
    </g>
    <g id="Path_1" data-name="Path 1" transform="translate(297 172.063)" fill="#707070">
      <path d="M 28.84705352783203 66.38124847412109 C 25.69416427612305 66.38124847412109 22.79121398925781 66.14610290527344 20.21883392333984 65.68231964111328 C 17.75366401672363 65.23786926269531 15.51218318939209 64.56890869140625 13.55667304992676 63.69401931762695 C 9.894693374633789 62.05566787719727 7.121823310852051 59.69062042236328 5.07960319519043 56.46371841430664 C 1.054803371429443 50.10412979125977 0.5000033974647522 41.17150115966797 0.5000033974647522 32.46583938598633 C 0.5000033974647522 28.19575881958008 1.043673396110535 23.71194839477539 2.072253465652466 19.49916839599609 C 3.152673482894897 15.07401943206787 4.708853244781494 11.07410907745361 6.697553157806396 7.610549449920654 C 8.823443412780762 3.908049345016479 11.347243309021 1.002559304237366 14.19884300231934 -1.025210738182068 C 17.29551315307617 -3.227240800857544 20.72726249694824 -4.343770503997803 24.39876365661621 -4.343770503997803 C 26.04558372497559 -4.343770503997803 27.76130294799805 -4.116340637207031 29.49824333190918 -3.667790651321411 C 34.23448181152344 -2.444710731506348 38.1215934753418 -0.8407506942749023 41.38169479370117 1.235749363899231 C 44.56062316894531 3.260549306869507 47.09487152099609 5.705979347229004 49.12924194335938 8.711779594421387 C 51.07889175415039 11.59241962432861 52.55535507202148 14.97108936309814 53.64299392700195 19.04084968566895 C 54.64943313598633 22.8067798614502 55.32999420166016 27.21026992797852 55.72358322143555 32.5029182434082 C 56.09946441650391 37.55757904052734 56.39712524414062 43.38724899291992 55.75485229492188 48.30033111572266 C 55.44124221801758 50.69931030273438 54.93392181396484 52.75304794311523 54.20391464233398 54.57888793945312 C 53.42096328735352 56.53715896606445 52.40304183959961 58.18362808227539 51.09198379516602 59.61238098144531 C 49.09512329101562 61.78852081298828 46.47431182861328 63.3897590637207 43.07980346679688 64.50759887695312 C 39.45244216918945 65.70211791992188 35.04886245727539 66.31352233886719 29.6174430847168 66.37673187255859 C 29.35993385314941 66.37973022460938 29.10073280334473 66.38124847412109 28.84705352783203 66.38124847412109 Z" stroke="none"/>
      <path d="M 24.39876556396484 -3.843769073486328 C 20.83319854736328 -3.843769073486328 17.49894332885742 -2.758369445800781 14.48859786987305 -0.6177253723144531 C 11.69625473022461 1.367908477783203 9.220844268798828 4.220066070556641 7.131153106689453 7.859519958496094 C 5.165885925292969 11.28227615356445 3.627243041992188 15.23831939697266 2.557975769042969 19.61776351928711 C 1.538742065429688 23.79232025146484 1 28.23510932922363 1 32.46584320068359 C 1 41.09622192382812 1.54541015625 49.94436645507812 5.502098083496094 56.19633102416992 C 7.490043640136719 59.33748626708984 10.19149780273438 61.64070892333984 13.7608528137207 63.23762130737305 C 15.67948913574219 64.09600830078125 17.88211059570312 64.75297546386719 20.30753326416016 65.19025421142578 C 22.85071182250977 65.64876556396484 25.72380828857422 65.88125610351562 28.84703254699707 65.88125610351562 C 29.09848785400391 65.88125610351562 29.35573196411133 65.87974548339844 29.61163139343262 65.87676239013672 C 34.9910888671875 65.81415557861328 39.34540939331055 65.21095275878906 42.92340850830078 64.03268432617188 C 46.23458862304688 62.94228744506836 48.78604125976562 61.38581085205078 50.72358703613281 59.27432250976562 C 51.99300003051758 57.89095306396484 52.97956466674805 56.29434204101562 53.73965454101562 54.39325332641602 C 54.45394515991211 52.60673141479492 54.95095443725586 50.59251022338867 55.25907516479492 48.23551177978516 C 55.89550018310547 43.3671989440918 55.59896469116211 37.56939697265625 55.2249641418457 32.54000091552734 C 54.83372116088867 27.27879905700684 54.15824508666992 22.90541076660156 53.15994262695312 19.16994094848633 C 52.08694458007812 15.15494155883789 50.63304138183594 11.82572174072266 48.71516418457031 8.992031097412109 C 46.71987533569336 6.043975830078125 44.23320770263672 3.644821166992188 41.11307525634766 1.657466888427734 C 37.89796447753906 -0.390380859375 34.05783081054688 -1.973922729492188 29.37323188781738 -3.183677673339844 C 27.67709922790527 -3.621681213378906 26.00344276428223 -3.843769073486328 24.39876556396484 -3.843769073486328 M 24.39876174926758 -4.843772888183594 C 26.06086158752441 -4.843772888183594 27.80263137817383 -4.6220703125 29.62326622009277 -4.151912689208984 C 48.78143310546875 0.7954750061035156 54.71892166137695 12.25063323974609 56.22220993041992 32.46584320068359 C 57.72548675537109 52.68105316162109 56.38412094116211 66.56523132324219 29.62326622009277 66.87670135498047 C 29.36356163024902 66.87972259521484 29.10225868225098 66.88124847412109 28.84703636169434 66.88124847412109 C 2.803260803222656 66.88124847412109 0 51.2859992980957 0 32.46584320068359 C 0 15.26729202270508 8.570926666259766 -4.843772888183594 24.39876174926758 -4.843772888183594 Z" stroke="none" fill="#707070"/>
    </g>
    <g id="Ellipse_8" data-name="Ellipse 8" transform="translate(11 231)" fill="none" stroke="#ebe8de" stroke-width="3">
      <ellipse cx="125.5" cy="53" rx="125.5" ry="53" stroke="none"/>
      <ellipse cx="125.5" cy="53" rx="124" ry="51.5" fill="none"/>
    </g>
    <g id="資產_1" data-name="資產 1" transform="translate(63 24.975)">
      <g id="圖層_1" data-name="圖層 1">
        <circle id="Ellipse_9" data-name="Ellipse 9" cx="77.5" cy="77.5" r="77.5" transform="translate(0 105.59)" fill="#ffef96" stroke="#d9d9d9" stroke-width="2"/>
        <path id="Path_7" data-name="Path 7" d="M.1,67.13C1.62,91,18.18,109.55,40,109.75A26.64,26.64,0,0,0,63.59,97.5a36.66,36.66,0,0,1,10.76,11.92,4.45,4.45,0,0,0,8-3.89c-3.78-7.81-19.91-28.22-54.75-26a2.224,2.224,0,0,1-.28-4.44c18.1-1.15,31.2,3.41,40.44,9.18a27,27,0,0,0,0-2.85,26.66,26.66,0,0,0-28.3-24.91l-11.08.71A23.82,23.82,0,0,1,6.86,46.42,2.16,2.16,0,0,0,3,46.83,50.53,50.53,0,0,0,.1,67.13Z" fill="#84be39"/>
        <path id="Path_8" data-name="Path 8" d="M113.05,15.07c14.66,20.49,13.9,46.4-3.22,60.79A26.84,26.84,0,0,1,83.1,81.21,38.54,38.54,0,0,0,82.52,98a4.53,4.53,0,0,1-3.35,5.53A4.71,4.71,0,0,1,73.62,100c-2.21-8.84-3-36,25.95-56.89a2.34,2.34,0,0,0-2.72-3.8C81.79,50.14,74.48,62.4,71,73.13c-.66-.75-1.32-1.48-1.92-2.31-9-12.59-6.42-30,5.8-38.76l9.22-6.64A24.36,24.36,0,0,0,94,2.57,2.18,2.18,0,0,1,97.31.36a54.26,54.26,0,0,1,15.74,14.71Z" fill="#84be39"/>
        <circle id="Ellipse_10" data-name="Ellipse 10" cx="9.73" cy="9.73" r="9.73" transform="translate(34.39 163.38)" fill="#806928"/>
        <circle id="Ellipse_11" data-name="Ellipse 11" cx="9.73" cy="9.73" r="9.73" transform="translate(101.46 163.38)" fill="#806928"/>
        <path id="Path_9" data-name="Path 9" d="M70.7,179.36s9.4,4.83,19,0c0,0,3.35,10.87-3.12,14.22a12.25,12.25,0,0,1-12.84-.67S67.9,188.89,70.7,179.36Z" fill="#806928"/>
        <path id="Path_10" data-name="Path 10" d="M184,89.35a2.33,2.33,0,0,0-3.43-2.51,25.73,25.73,0,0,1-26-1.55l-10-6.66a28.81,28.81,0,0,0-39.94,8,27.344,27.344,0,0,0-1.51,2.68c11.76-.39,26.48,2.43,42.78,13.29a2.4,2.4,0,0,1-2.66,4C111.91,85.67,85.78,96,78,101.29a4.82,4.82,0,0,0,5.38,8,39.55,39.55,0,0,1,16.52-5.32,28.74,28.74,0,0,0,15.4,24.19c20.54,11.64,46.05,3.26,60.4-18.26A54.66,54.66,0,0,0,184,89.35Z" fill="#84be39"/>
      </g>
    </g>
    <g id="Mask_Group_601" data-name="Mask Group 601" transform="translate(0 -363)" clip-path="url(#clip-path)">
      <path id="Path_5" data-name="Path 5" d="M835,676.218s-27.366-16.522-63.327,0-53.207,69.7-129.373,88.641-152.18,11.926-206.319-35.5" transform="translate(-442 12)" fill="none" stroke="#ebe8de" stroke-width="3"/>
    </g>
    <g id="Mask_Group_606" data-name="Mask Group 606" clip-path="url(#clip-path-2)">
      <path id="Path_2" data-name="Path 2" d="M827.8,676.218s-26.872-16.522-62.185,0-52.247,69.7-127.039,88.641-149.435,11.926-202.6-35.5" transform="translate(-442 -372)" fill="none" stroke="#ebe8de" stroke-width="3"/>
      <path id="Path_4" data-name="Path 4" d="M827.8,676.218s-26.872-16.522-62.185,0-52.247,69.7-127.039,88.641-149.435,11.926-202.6-35.5" transform="translate(-442 -385)" fill="none" stroke="#ebe8de" stroke-width="3"/>
      <path id="Path_6" data-name="Path 6" d="M827.8,676.218s-26.872-16.522-62.185,0-52.247,69.7-127.039,88.641-149.435,11.926-202.6-35.5" transform="translate(-442 -400)" fill="none" stroke="#ebe8de" stroke-width="3"/>
      <path id="Path_3" data-name="Path 3" d="M835,676.218s-27.366-16.522-63.327,0-53.207,69.7-129.373,88.641-152.18,11.926-206.319-35.5" transform="translate(-442 -362)" fill="none" stroke="#ebe8de" stroke-width="3"/>
    </g>
  </g>
</svg>
