<svg xmlns="http://www.w3.org/2000/svg" xmlns:xlink="http://www.w3.org/1999/xlink" width="375" height="337.26" viewBox="0 0 375 337.26">
  <defs>
    <clipPath id="clip-path">
      <rect id="Rectangle_331" data-name="Rectangle 331" width="375" height="69" transform="translate(0 663)" fill="#fff" stroke="#707070" stroke-width="1"/>
    </clipPath>
    <linearGradient id="linear-gradient" x1="0.287" y1="0.952" x2="0.713" y2="0.048" gradientUnits="objectBoundingBox">
      <stop offset="0" stop-color="#cc0035"/>
      <stop offset="1" stop-color="#fff478"/>
    </linearGradient>
    <clipPath id="clip-path-2">
      <rect id="Rectangle_335" data-name="Rectangle 335" width="375" height="176" transform="translate(0 193)" fill="#fff"/>
    </clipPath>
    <clipPath id="clip-_02">
      <rect width="375" height="337.26"/>
    </clipPath>
  </defs>
  <g id="_02" data-name="02" clip-path="url(#clip-_02)">
    <g id="Group_19" data-name="Group 19" transform="translate(0 -32)">
      <rect id="Rectangle_330" data-name="Rectangle 330" width="375" height="176" transform="translate(0 193)" fill="#fff"/>
      <g id="Ellipse_28" data-name="Ellipse 28" transform="translate(64 252)" fill="none" stroke="#ebe8de" stroke-width="3">
        <ellipse cx="71.5" cy="26" rx="71.5" ry="26" stroke="none"/>
        <ellipse cx="71.5" cy="26" rx="70" ry="24.5" fill="none"/>
      </g>
      <g id="Ellipse_25" data-name="Ellipse 25" transform="translate(272.747 212.908)" fill="none" stroke="#ebe8de" stroke-width="3">
        <ellipse cx="49.753" cy="18.092" rx="49.753" ry="18.092" stroke="none"/>
        <ellipse cx="49.753" cy="18.092" rx="48.253" ry="16.592" fill="none"/>
      </g>
      <g id="Ellipse_26" data-name="Ellipse 26" transform="translate(44 245)" fill="none" stroke="#ebe8de" stroke-width="3">
        <ellipse cx="91.5" cy="34.5" rx="91.5" ry="34.5" stroke="none"/>
        <ellipse cx="91.5" cy="34.5" rx="90" ry="33" fill="none"/>
      </g>
      <g id="Ellipse_27" data-name="Ellipse 27" transform="translate(258.829 208.037)" fill="none" stroke="#ebe8de" stroke-width="3">
        <ellipse cx="63.671" cy="23.963" rx="63.671" ry="23.963" stroke="none"/>
        <ellipse cx="63.671" cy="23.963" rx="62.171" ry="22.463" fill="none"/>
      </g>
      <g id="Ellipse_22" data-name="Ellipse 22" transform="translate(27 238)" fill="none" stroke="#ebe8de" stroke-width="3">
        <ellipse cx="108.5" cy="43" rx="108.5" ry="43" stroke="none"/>
        <ellipse cx="108.5" cy="43" rx="107" ry="41.5" fill="none"/>
      </g>
      <g id="Ellipse_23" data-name="Ellipse 23" transform="translate(247 203.166)" fill="none" stroke="#ebe8de" stroke-width="3">
        <ellipse cx="75.5" cy="30.834" rx="75.5" ry="30.834" stroke="none"/>
        <ellipse cx="75.5" cy="30.834" rx="74" ry="29.334" fill="none"/>
      </g>
      <g id="Path_59" data-name="Path 59" transform="translate(297 172.063)" fill="#707070">
        <path d="M 28.84705352783203 66.38124847412109 C 25.69416427612305 66.38124847412109 22.79121398925781 66.14610290527344 20.21883392333984 65.68231964111328 C 17.75366401672363 65.23786926269531 15.51218318939209 64.56890869140625 13.55667304992676 63.69401931762695 C 9.894693374633789 62.05566787719727 7.121823310852051 59.69062042236328 5.07960319519043 56.46371841430664 C 1.054803371429443 50.10412979125977 0.5000033974647522 41.17150115966797 0.5000033974647522 32.46583938598633 C 0.5000033974647522 28.19575881958008 1.043673396110535 23.71194839477539 2.072253465652466 19.49916839599609 C 3.152673482894897 15.07401943206787 4.708853244781494 11.07410907745361 6.697553157806396 7.610549449920654 C 8.823443412780762 3.908049345016479 11.347243309021 1.002559304237366 14.19884300231934 -1.025210738182068 C 17.29551315307617 -3.227240800857544 20.72726249694824 -4.343770503997803 24.39876365661621 -4.343770503997803 C 26.04558372497559 -4.343770503997803 27.76130294799805 -4.116340637207031 29.49824333190918 -3.667790651321411 C 34.23448181152344 -2.444710731506348 38.1215934753418 -0.8407506942749023 41.38169479370117 1.235749363899231 C 44.56062316894531 3.260549306869507 47.09487152099609 5.705979347229004 49.12924194335938 8.711779594421387 C 51.07889175415039 11.59241962432861 52.55535507202148 14.97108936309814 53.64299392700195 19.04084968566895 C 54.64943313598633 22.8067798614502 55.32999420166016 27.21026992797852 55.72358322143555 32.5029182434082 C 56.09946441650391 37.55757904052734 56.39712524414062 43.38724899291992 55.75485229492188 48.30033111572266 C 55.44124221801758 50.69931030273438 54.93392181396484 52.75304794311523 54.20391464233398 54.57888793945312 C 53.42096328735352 56.53715896606445 52.40304183959961 58.18362808227539 51.09198379516602 59.61238098144531 C 49.09512329101562 61.78852081298828 46.47431182861328 63.3897590637207 43.07980346679688 64.50759887695312 C 39.45244216918945 65.70211791992188 35.04886245727539 66.31352233886719 29.6174430847168 66.37673187255859 C 29.35993385314941 66.37973022460938 29.10073280334473 66.38124847412109 28.84705352783203 66.38124847412109 Z" stroke="none"/>
        <path d="M 24.39876556396484 -3.843769073486328 C 20.83319854736328 -3.843769073486328 17.49894332885742 -2.758369445800781 14.48859786987305 -0.6177253723144531 C 11.69625473022461 1.367908477783203 9.220844268798828 4.220066070556641 7.131153106689453 7.859519958496094 C 5.165885925292969 11.28227615356445 3.627243041992188 15.23831939697266 2.557975769042969 19.61776351928711 C 1.538742065429688 23.79232025146484 1 28.23510932922363 1 32.46584320068359 C 1 41.09622192382812 1.54541015625 49.94436645507812 5.502098083496094 56.19633102416992 C 7.490043640136719 59.33748626708984 10.19149780273438 61.64070892333984 13.7608528137207 63.23762130737305 C 15.67948913574219 64.09600830078125 17.88211059570312 64.75297546386719 20.30753326416016 65.19025421142578 C 22.85071182250977 65.64876556396484 25.72380828857422 65.88125610351562 28.84703254699707 65.88125610351562 C 29.09848785400391 65.88125610351562 29.35573196411133 65.87974548339844 29.61163139343262 65.87676239013672 C 34.9910888671875 65.81415557861328 39.34540939331055 65.21095275878906 42.92340850830078 64.03268432617188 C 46.23458862304688 62.94228744506836 48.78604125976562 61.38581085205078 50.72358703613281 59.27432250976562 C 51.99300003051758 57.89095306396484 52.97956466674805 56.29434204101562 53.73965454101562 54.39325332641602 C 54.45394515991211 52.60673141479492 54.95095443725586 50.59251022338867 55.25907516479492 48.23551177978516 C 55.89550018310547 43.3671989440918 55.59896469116211 37.56939697265625 55.2249641418457 32.54000091552734 C 54.83372116088867 27.27879905700684 54.15824508666992 22.90541076660156 53.15994262695312 19.16994094848633 C 52.08694458007812 15.15494155883789 50.63304138183594 11.82572174072266 48.71516418457031 8.992031097412109 C 46.71987533569336 6.043975830078125 44.23320770263672 3.644821166992188 41.11307525634766 1.657466888427734 C 37.89796447753906 -0.390380859375 34.05783081054688 -1.973922729492188 29.37323188781738 -3.183677673339844 C 27.67709922790527 -3.621681213378906 26.00344276428223 -3.843769073486328 24.39876556396484 -3.843769073486328 M 24.39876174926758 -4.843772888183594 C 26.06086158752441 -4.843772888183594 27.80263137817383 -4.6220703125 29.62326622009277 -4.151912689208984 C 48.78143310546875 0.7954750061035156 54.71892166137695 12.25063323974609 56.22220993041992 32.46584320068359 C 57.72548675537109 52.68105316162109 56.38412094116211 66.56523132324219 29.62326622009277 66.87670135498047 C 29.36356163024902 66.87972259521484 29.10225868225098 66.88124847412109 28.84703636169434 66.88124847412109 C 2.803260803222656 66.88124847412109 0 51.2859992980957 0 32.46584320068359 C 0 15.26729202270508 8.570926666259766 -4.843772888183594 24.39876174926758 -4.843772888183594 Z" stroke="none" fill="#707070"/>
      </g>
      <g id="Ellipse_24" data-name="Ellipse 24" transform="translate(10 231)" fill="none" stroke="#ebe8de" stroke-width="3">
        <ellipse cx="125.5" cy="53" rx="125.5" ry="53" stroke="none"/>
        <ellipse cx="125.5" cy="53" rx="124" ry="51.5" fill="none"/>
      </g>
      <g id="Mask_Group_604" data-name="Mask Group 604" transform="translate(0 -363)" clip-path="url(#clip-path)">
        <path id="Path_58" data-name="Path 58" d="M835,676.218s-27.366-16.522-63.327,0-53.207,69.7-129.373,88.641-152.18,11.926-206.319-35.5" transform="translate(-442 12)" fill="none" stroke="#ebe8de" stroke-width="3"/>
      </g>
      <g id="Group_15" data-name="Group 15" transform="translate(-8.107 -322.5)">
        <g id="Group_13" data-name="Group 13" transform="translate(52.116 354.242)">
          <circle id="Ellipse_12" data-name="Ellipse 12" cx="78.279" cy="78.279" r="78.279" transform="translate(21.404 96.2)" fill="#fff181"/>
          <circle id="Ellipse_13" data-name="Ellipse 13" cx="78.279" cy="78.279" r="78.279" transform="translate(21.404 96.2)" fill="url(#linear-gradient)"/>
          <path id="Path_31" data-name="Path 31" d="M296.093,104.378c-1.683,24.119,12.4,44.9,34.254,48.023a26.867,26.867,0,0,0,25.222-9.092,36.9,36.9,0,0,1,9.174,13.377,4.494,4.494,0,0,0,8.533-2.821c-2.736-8.33-16.145-30.93-51.316-33.384a2.244,2.244,0,1,1,.313-4.477c18.271,1.275,30.776,7.6,39.256,14.618a27.7,27.7,0,0,0,.41-2.853,26.933,26.933,0,0,0-24.986-28.735l-11.192-.781a24.047,24.047,0,0,1-20.116-13.705,2.182,2.182,0,0,0-3.972-.108A51,51,0,0,0,296.093,104.378Z" transform="translate(-265.372 -51.496)" fill="#ee711d"/>
          <path id="Path_32" data-name="Path 32" d="M389.5,63.969c18.077,17.913,21.714,43.84,7.1,61.077a27.112,27.112,0,0,1-25.706,9.86,38.945,38.945,0,0,0,2.261,16.765,4.565,4.565,0,0,1-2.395,6.07,4.758,4.758,0,0,1-6.124-2.533c-3.695-8.429-9.12-35.339,16.194-61.042a2.363,2.363,0,0,0-3.355-3.325c-13.15,13.352-18.356,26.8-19.988,38.071a29.855,29.855,0,0,1-2.3-1.977c-11.115-11.014-11.473-28.742-.8-39.579l8.055-8.179a24.592,24.592,0,0,0,5.919-24.417,2.207,2.207,0,0,1,2.976-2.769A54.9,54.9,0,0,1,389.5,63.969Z" transform="translate(-264.863 -51.812)" fill="#e44426"/>
          <path id="Path_33" data-name="Path 33" d="M463.2,103.216a2.357,2.357,0,0,0-4.118-1.21,25.982,25.982,0,0,1-25.237,7.392l-11.764-2.922a29.1,29.1,0,0,0-35.245,21.219,30.018,30.018,0,0,0-.528,3.07c11.051-4.39,26.011-6.731,45.214-1.962a2.424,2.424,0,0,1-1.169,4.706c-36.966-9.182-58.27,9.583-63.855,17.236a4.855,4.855,0,0,0,7.832,5.739c.353-.475,4.823-6.279,13.882-10.7a29.026,29.026,0,0,0,22.9,17.741c23.5,4.057,44.893-12.611,51.189-37.961A55.111,55.111,0,0,0,463.2,103.216Z" transform="translate(-264.672 -51.316)" fill="#d7200d"/>
          <path id="Path_34" data-name="Path 34" d="M300.254,181.61s-4.453,6.441-9.2,9.732c-5.317,3.684-5.381,10.808-1.234,11.8,0,0,7.333.5,10.641-5.074C300.457,198.063,304.328,189.767,300.254,181.61Z" transform="translate(-265.464 -50.507)" fill="#bfe0d0"/>
          <path id="Path_35" data-name="Path 35" d="M279.063,231.142s-4.454,6.441-9.2,9.732c-5.317,3.684-5.382,10.808-1.234,11.8,0,0,7.333.5,10.641-5.075C279.266,247.595,283.136,239.3,279.063,231.142Z" transform="translate(-265.677 -50.009)" fill="#bfe0d0"/>
          <path id="Path_36" data-name="Path 36" d="M433.353,217.861s4.453,6.442,9.2,9.732c5.318,3.684,5.382,10.809,1.235,11.8,0,0-7.333.495-10.641-5.074C433.15,234.315,429.28,226.019,433.353,217.861Z" transform="translate(-264.01 -50.143)" fill="#bfe0d0"/>
          <path id="Path_37" data-name="Path 37" d="M340.928,214.673A9.826,9.826,0,0,1,331.1,224.5c-5.427,0-14.4-6.91-9.827-9.827,4.325-2.755,4.4-9.826,9.827-9.826A9.826,9.826,0,0,1,340.928,214.673Z" transform="translate(-265.13 -50.274)" fill="#70551c"/>
          <path id="Path_38" data-name="Path 38" d="M407.98,214.673c3.769,3.906-4.4,9.827-9.827,9.827a9.826,9.826,0,1,1,0-19.653C403.58,204.847,403.826,210.37,407.98,214.673Z" transform="translate(-264.444 -50.274)" fill="#70551c"/>
          <path id="Path_39" data-name="Path 39" d="M369.375,232.605c-3.011,1.385-7.5.813-10.4-.573-2.753-1.314-5.233-4.779-3.112-7.7,4.229-5.82,11.7-4.04,16.989-1.856a4.411,4.411,0,0,1,.871.531C378.212,226.393,374.48,230.258,369.375,232.605Z" transform="translate(-264.778 -50.117)" fill="#70551c"/>
          <path id="Path_40" data-name="Path 40" d="M360.081,226.842s-3.873.607-3.225,8.6c0,0,1.936,5.673,8.383,0a38.6,38.6,0,0,1,3.8-5.416S368.849,225.2,360.081,226.842Z" transform="translate(-264.761 -50.056)" fill="#b42e17"/>
          <path id="Path_41" data-name="Path 41" d="M362.886,226.839s-3.863,4.394-3.347,6.5" transform="translate(-264.734 -50.053)" fill="none" stroke="#fff181" stroke-miterlimit="10" stroke-width="1"/>
        </g>
      </g>
      <g id="Mask_Group_607" data-name="Mask Group 607" clip-path="url(#clip-path-2)">
        <path id="Path_54" data-name="Path 54" d="M827.8,676.218s-26.872-16.522-62.185,0-52.247,69.7-127.039,88.641-149.435,11.926-202.6-35.5" transform="translate(-442 -372)" fill="none" stroke="#ebe8de" stroke-width="3"/>
        <path id="Path_55" data-name="Path 55" d="M827.8,676.218s-26.872-16.522-62.185,0-52.247,69.7-127.039,88.641-149.435,11.926-202.6-35.5" transform="translate(-442 -385)" fill="none" stroke="#ebe8de" stroke-width="3"/>
        <path id="Path_56" data-name="Path 56" d="M827.8,676.218s-26.872-16.522-62.185,0-52.247,69.7-127.039,88.641-149.435,11.926-202.6-35.5" transform="translate(-442 -400)" fill="none" stroke="#ebe8de" stroke-width="3"/>
        <path id="Path_57" data-name="Path 57" d="M835,676.218s-27.366-16.522-63.327,0-53.207,69.7-129.373,88.641-152.18,11.926-206.319-35.5" transform="translate(-442 -362)" fill="none" stroke="#ebe8de" stroke-width="3"/>
      </g>
    </g>
  </g>
</svg>
