<svg xmlns="http://www.w3.org/2000/svg" xmlns:xlink="http://www.w3.org/1999/xlink" width="375" height="440" viewBox="0 0 375 440">
  <defs>
    <clipPath id="clip-path">
      <rect id="Rectangle_333" data-name="Rectangle 333" width="375" height="62" transform="translate(0 670)" fill="#fff" stroke="#707070" stroke-width="1"/>
    </clipPath>
    <clipPath id="clip-path-2">
      <rect id="Rectangle_336" data-name="Rectangle 336" width="375" height="176" transform="translate(0 197)" fill="#d1c9c9"/>
    </clipPath>
    <clipPath id="clip-_03">
      <rect width="375" height="440"/>
    </clipPath>
  </defs>
  <g id="_03" data-name="03" clip-path="url(#clip-_03)">
    <rect id="Rectangle_332" data-name="Rectangle 332" width="375" height="176" transform="translate(0 197)" fill="#d1c9c9"/>
    <g id="Ellipse_29" data-name="Ellipse 29" transform="translate(65 256)" fill="none" stroke="#b9b5a7" stroke-width="3">
      <ellipse cx="71.5" cy="26" rx="71.5" ry="26" stroke="none"/>
      <ellipse cx="71.5" cy="26" rx="70" ry="24.5" fill="none"/>
    </g>
    <g id="Ellipse_30" data-name="Ellipse 30" transform="translate(272.747 216.908)" fill="none" stroke="#b9b5a7" stroke-width="3">
      <ellipse cx="49.753" cy="18.092" rx="49.753" ry="18.092" stroke="none"/>
      <ellipse cx="49.753" cy="18.092" rx="48.253" ry="16.592" fill="none"/>
    </g>
    <g id="Ellipse_31" data-name="Ellipse 31" transform="translate(45 249)" fill="none" stroke="#b9b5a7" stroke-width="3">
      <ellipse cx="91.5" cy="34.5" rx="91.5" ry="34.5" stroke="none"/>
      <ellipse cx="91.5" cy="34.5" rx="90" ry="33" fill="none"/>
    </g>
    <g id="Ellipse_32" data-name="Ellipse 32" transform="translate(258.829 212.037)" fill="none" stroke="#b9b5a7" stroke-width="3">
      <ellipse cx="63.671" cy="23.963" rx="63.671" ry="23.963" stroke="none"/>
      <ellipse cx="63.671" cy="23.963" rx="62.171" ry="22.463" fill="none"/>
    </g>
    <g id="Ellipse_33" data-name="Ellipse 33" transform="translate(28 242)" fill="none" stroke="#b9b5a7" stroke-width="3">
      <ellipse cx="108.5" cy="43" rx="108.5" ry="43" stroke="none"/>
      <ellipse cx="108.5" cy="43" rx="107" ry="41.5" fill="none"/>
    </g>
    <g id="Ellipse_34" data-name="Ellipse 34" transform="translate(247 207.166)" fill="none" stroke="#b9b5a7" stroke-width="3">
      <ellipse cx="75.5" cy="30.834" rx="75.5" ry="30.834" stroke="none"/>
      <ellipse cx="75.5" cy="30.834" rx="74" ry="29.334" fill="none"/>
    </g>
    <g id="Path_64" data-name="Path 64" transform="translate(297 176.063)" fill="#707070">
      <path d="M 28.84705352783203 66.38124847412109 C 25.69416427612305 66.38124847412109 22.79121398925781 66.14610290527344 20.21883392333984 65.68231964111328 C 17.75366401672363 65.23786926269531 15.51218318939209 64.56890869140625 13.55667304992676 63.69401931762695 C 9.894693374633789 62.05566787719727 7.121823310852051 59.69062042236328 5.07960319519043 56.46371841430664 C 1.054803371429443 50.10412979125977 0.5000033974647522 41.17150115966797 0.5000033974647522 32.46583938598633 C 0.5000033974647522 28.19575881958008 1.043673396110535 23.71194839477539 2.072253465652466 19.49916839599609 C 3.152673482894897 15.07401943206787 4.708853244781494 11.07410907745361 6.697553157806396 7.610549449920654 C 8.823443412780762 3.908049345016479 11.347243309021 1.002559304237366 14.19884300231934 -1.025210738182068 C 17.29551315307617 -3.227240800857544 20.72726249694824 -4.343770503997803 24.39876365661621 -4.343770503997803 C 26.04558372497559 -4.343770503997803 27.76130294799805 -4.116340637207031 29.49824333190918 -3.667790651321411 C 34.23448181152344 -2.444710731506348 38.1215934753418 -0.8407506942749023 41.38169479370117 1.235749363899231 C 44.56062316894531 3.260549306869507 47.09487152099609 5.705979347229004 49.12924194335938 8.711779594421387 C 51.07889175415039 11.59241962432861 52.55535507202148 14.97108936309814 53.64299392700195 19.04084968566895 C 54.64943313598633 22.8067798614502 55.32999420166016 27.21026992797852 55.72358322143555 32.5029182434082 C 56.09946441650391 37.55757904052734 56.39712524414062 43.38724899291992 55.75485229492188 48.30033111572266 C 55.44124221801758 50.69931030273438 54.93392181396484 52.75304794311523 54.20391464233398 54.57888793945312 C 53.42096328735352 56.53715896606445 52.40304183959961 58.18362808227539 51.09198379516602 59.61238098144531 C 49.09512329101562 61.78852081298828 46.47431182861328 63.3897590637207 43.07980346679688 64.50759887695312 C 39.45244216918945 65.70211791992188 35.04886245727539 66.31352233886719 29.6174430847168 66.37673187255859 C 29.35993385314941 66.37973022460938 29.10073280334473 66.38124847412109 28.84705352783203 66.38124847412109 Z" stroke="none"/>
      <path d="M 24.39876556396484 -3.843769073486328 C 20.83319854736328 -3.843769073486328 17.49894332885742 -2.758369445800781 14.48859786987305 -0.6177253723144531 C 11.69625473022461 1.367908477783203 9.220844268798828 4.220066070556641 7.131153106689453 7.859519958496094 C 5.165885925292969 11.28227615356445 3.627243041992188 15.23831939697266 2.557975769042969 19.61776351928711 C 1.538742065429688 23.79232025146484 1 28.23510932922363 1 32.46584320068359 C 1 41.09622192382812 1.54541015625 49.94436645507812 5.502098083496094 56.19633102416992 C 7.490043640136719 59.33748626708984 10.19149780273438 61.64070892333984 13.7608528137207 63.23762130737305 C 15.67948913574219 64.09600830078125 17.88211059570312 64.75297546386719 20.30753326416016 65.19025421142578 C 22.85071182250977 65.64876556396484 25.72380828857422 65.88125610351562 28.84703254699707 65.88125610351562 C 29.09848785400391 65.88125610351562 29.35573196411133 65.87974548339844 29.61163139343262 65.87676239013672 C 34.9910888671875 65.81415557861328 39.34540939331055 65.21095275878906 42.92340850830078 64.03268432617188 C 46.23458862304688 62.94228744506836 48.78604125976562 61.38581085205078 50.72358703613281 59.27432250976562 C 51.99300003051758 57.89095306396484 52.97956466674805 56.29434204101562 53.73965454101562 54.39325332641602 C 54.45394515991211 52.60673141479492 54.95095443725586 50.59251022338867 55.25907516479492 48.23551177978516 C 55.89550018310547 43.3671989440918 55.59896469116211 37.56939697265625 55.2249641418457 32.54000091552734 C 54.83372116088867 27.27879905700684 54.15824508666992 22.90541076660156 53.15994262695312 19.16994094848633 C 52.08694458007812 15.15494155883789 50.63304138183594 11.82572174072266 48.71516418457031 8.992031097412109 C 46.71987533569336 6.043975830078125 44.23320770263672 3.644821166992188 41.11307525634766 1.657466888427734 C 37.89796447753906 -0.390380859375 34.05783081054688 -1.973922729492188 29.37323188781738 -3.183677673339844 C 27.67709922790527 -3.621681213378906 26.00344276428223 -3.843769073486328 24.39876556396484 -3.843769073486328 M 24.39876174926758 -4.843772888183594 C 26.06086158752441 -4.843772888183594 27.80263137817383 -4.6220703125 29.62326622009277 -4.151912689208984 C 48.78143310546875 0.7954750061035156 54.71892166137695 12.25063323974609 56.22220993041992 32.46584320068359 C 57.72548675537109 52.68105316162109 56.38412094116211 66.56523132324219 29.62326622009277 66.87670135498047 C 29.36356163024902 66.87972259521484 29.10225868225098 66.88124847412109 28.84703636169434 66.88124847412109 C 2.803260803222656 66.88124847412109 0 51.2859992980957 0 32.46584320068359 C 0 15.26729202270508 8.570926666259766 -4.843772888183594 24.39876174926758 -4.843772888183594 Z" stroke="none" fill="#707070"/>
    </g>
    <g id="Ellipse_35" data-name="Ellipse 35" transform="translate(11 235)" fill="none" stroke="#b9b5a7" stroke-width="3">
      <ellipse cx="125.5" cy="53" rx="125.5" ry="53" stroke="none"/>
      <ellipse cx="125.5" cy="53" rx="124" ry="51.5" fill="none"/>
    </g>
    <g id="Mask_Group_605" data-name="Mask Group 605" transform="translate(0 -359)" clip-path="url(#clip-path)">
      <path id="Path_65" data-name="Path 65" d="M835,676.218s-27.366-16.522-63.327,0-53.207,69.7-129.373,88.641-152.18,11.926-206.319-35.5" transform="translate(-442 12)" fill="none" stroke="#b9b5a7" stroke-width="3"/>
    </g>
    <g id="Group_18" data-name="Group 18" transform="translate(23.684 -8.362)">
      <circle id="Ellipse_14" data-name="Ellipse 14" cx="77.5" cy="77.5" r="77.5" transform="translate(39.209 142.726)" fill="#fff181" stroke="#d9d9d9" stroke-width="2"/>
      <path id="Path_42" data-name="Path 42" d="M93.06,210.248a9.729,9.729,0,0,1-9.729,9.729c-5.373,0-14.26-6.842-9.728-9.729,4.282-2.729,4.355-9.729,9.728-9.729A9.729,9.729,0,0,1,93.06,210.248Z" fill="#70551c"/>
      <path id="Path_43" data-name="Path 43" d="M160.124,210.248c3.732,3.866-4.356,9.729-9.729,9.729a9.729,9.729,0,0,1,0-19.458C155.768,200.519,156.012,205.987,160.124,210.248Z" fill="#70551c"/>
      <path id="Path_44" data-name="Path 44" d="M127.977,223.775a38.449,38.449,0,0,0-19.033-.343s-3.248-5.218,3.259-7a20.485,20.485,0,0,1,12.834.611S130.874,218.427,127.977,223.775Z" fill="#70551c"/>
      <path id="Path_45" data-name="Path 45" d="M113.24,142.306c-6.061-6.215-27.826-20.468-60.165-7.332a2.221,2.221,0,1,1-1.672-4.116c16.8-6.824,30.675-6.645,41.27-4.1a27.672,27.672,0,0,0-.879-2.716,26.665,26.665,0,0,0-34.73-14.666l-7.27,2.953a9.569,9.569,0,1,1-18.108,2.191,24.532,24.532,0,0,1-8.768-4.387,2.16,2.16,0,0,0-3.577,1.634,50.477,50.477,0,0,0,3.722,20.157C32.071,154.1,53.642,166.44,74.434,159.7A26.6,26.6,0,0,0,92.9,140.633a36.528,36.528,0,0,1,13.983,7.9,4.449,4.449,0,0,0,6.358-6.225Z" fill="#9bac2c"/>
      <path id="Path_46" data-name="Path 46" d="M200.113,105.691c-4.546,24.783-23.709,42.237-45.96,39.919A26.839,26.839,0,0,1,131.735,130.1a38.537,38.537,0,0,0-12.442,11.211,4.52,4.52,0,0,1-6.3,1.433,4.71,4.71,0,0,1-1.35-6.421c4.826-7.728,23.794-27.193,58.944-20.857a2.339,2.339,0,0,0,.844-4.6c-18.26-3.292-32.16-.036-42.286,4.925a30.017,30.017,0,0,1,.331-2.984c2.8-15.238,17.088-25.432,31.908-22.761l11.185,2.017a24.351,24.351,0,0,0,23.266-8.8,2.184,2.184,0,0,1,3.925.885A54.363,54.363,0,0,1,200.113,105.691Z" fill="#84b625"/>
      <path id="Path_47" data-name="Path 47" d="M219.337,170.822a25.721,25.721,0,0,1-21.6-14.53l-5.224-10.8A28.807,28.807,0,0,0,154.044,132.1a29.506,29.506,0,0,0-2.671,1.541c10.338,5.632,21.591,15.536,30.118,33.173a2.407,2.407,0,0,1-1.116,3.206,2.46,2.46,0,0,1-3.205-1.116c-23.868-42.842-55.671-33.723-64.546-30.692a6.717,6.717,0,0,0-4.476,7.08c.153,2.658,2.553,4.17,5.2,3.321,1.952-.625,13.433-7.149,27.793-.012-3.813,7.242-5.45,14.3.994,24.661.246.427.509.839.767,1.254a7.911,7.911,0,1,1,9.965,10.875c13.467,10.089,32.868,11.36,50.571,2.8a54.538,54.538,0,0,0,17.582-13.466A2.334,2.334,0,0,0,219.337,170.822Z" fill="#828519"/>
    </g>
    <g id="Mask_Group_608" data-name="Mask Group 608" clip-path="url(#clip-path-2)">
      <path id="Path_60" data-name="Path 60" d="M827.8,676.218s-26.872-16.522-62.185,0-52.247,69.7-127.039,88.641-149.435,11.926-202.6-35.5" transform="translate(-442 -368)" fill="none" stroke="#b9b5a7" stroke-width="3"/>
      <path id="Path_62" data-name="Path 62" d="M827.8,676.218s-26.872-16.522-62.185,0-52.247,69.7-127.039,88.641-149.435,11.926-202.6-35.5" transform="translate(-442 -381)" fill="none" stroke="#b9b5a7" stroke-width="3"/>
      <path id="Path_63" data-name="Path 63" d="M827.8,676.218s-26.872-16.522-62.185,0-52.247,69.7-127.039,88.641-149.435,11.926-202.6-35.5" transform="translate(-442 -396)" fill="none" stroke="#b9b5a7" stroke-width="3"/>
      <path id="Path_61" data-name="Path 61" d="M835,676.218s-27.366-16.522-63.327,0-53.207,69.7-129.373,88.641-152.18,11.926-206.319-35.5" transform="translate(-442 -358)" fill="none" stroke="#b9b5a7" stroke-width="3"/>
    </g>
  </g>
</svg>
