<svg xmlns="http://www.w3.org/2000/svg" xmlns:xlink="http://www.w3.org/1999/xlink" width="301" height="304" viewBox="0 0 301 304">
  <defs>
    <style>
      .cls-1 {
        clip-path: url(#clip-Artboard_4);
      }

      .cls-2 {
        fill: #ffef96;
        stroke: #d9d9d9;
        stroke-width: 2px;
      }

      .cls-3 {
        fill: #96a45e;
      }

      .cls-4 {
        fill: #806928;
      }
    </style>
    <clipPath id="clip-Artboard_4">
      <rect width="301" height="304"/>
    </clipPath>
  </defs>
  <g id="Artboard_4" data-name="Artboard – 4" class="cls-1">
    <g id="資產_1" data-name="資產 1" transform="translate(73 18.975)">
      <g id="圖層_1" data-name="圖層 1">
        <circle id="Ellipse_9" data-name="Ellipse 9" class="cls-2" cx="77.5" cy="77.5" r="77.5" transform="translate(0 105.59)"/>
        <path id="Path_7" data-name="Path 7" class="cls-3" d="M.1,67.13C1.62,91,18.18,109.55,40,109.75A26.64,26.64,0,0,0,63.59,97.5a36.66,36.66,0,0,1,10.76,11.92,4.45,4.45,0,0,0,8-3.89c-3.78-7.81-19.91-28.22-54.75-26a2.224,2.224,0,0,1-.28-4.44c18.1-1.15,31.2,3.41,40.44,9.18a27,27,0,0,0,0-2.85,26.66,26.66,0,0,0-28.3-24.91l-11.08.71A23.82,23.82,0,0,1,6.86,46.42,2.16,2.16,0,0,0,3,46.83,50.53,50.53,0,0,0,.1,67.13Z"/>
        <path id="Path_8" data-name="Path 8" class="cls-3" d="M113.05,15.07c14.66,20.49,13.9,46.4-3.22,60.79A26.84,26.84,0,0,1,83.1,81.21,38.54,38.54,0,0,0,82.52,98a4.53,4.53,0,0,1-3.35,5.53A4.71,4.71,0,0,1,73.62,100c-2.21-8.84-3-36,25.95-56.89a2.34,2.34,0,0,0-2.72-3.8C81.79,50.14,74.48,62.4,71,73.13c-.66-.75-1.32-1.48-1.92-2.31-9-12.59-6.42-30,5.8-38.76l9.22-6.64A24.36,24.36,0,0,0,94,2.57,2.18,2.18,0,0,1,97.31.36a54.26,54.26,0,0,1,15.74,14.71Z"/>
        <circle id="Ellipse_10" data-name="Ellipse 10" class="cls-4" cx="9.73" cy="9.73" r="9.73" transform="translate(34.39 163.38)"/>
        <circle id="Ellipse_11" data-name="Ellipse 11" class="cls-4" cx="9.73" cy="9.73" r="9.73" transform="translate(101.46 163.38)"/>
        <path id="Path_9" data-name="Path 9" class="cls-4" d="M70.7,179.36s9.4,4.83,19,0c0,0,3.35,10.87-3.12,14.22a12.25,12.25,0,0,1-12.84-.67S67.9,188.89,70.7,179.36Z"/>
        <path id="Path_10" data-name="Path 10" class="cls-3" d="M184,89.35a2.33,2.33,0,0,0-3.43-2.51,25.73,25.73,0,0,1-26-1.55l-10-6.66a28.81,28.81,0,0,0-39.94,8,27.344,27.344,0,0,0-1.51,2.68c11.76-.39,26.48,2.43,42.78,13.29a2.4,2.4,0,0,1-2.66,4C111.91,85.67,85.78,96,78,101.29a4.82,4.82,0,0,0,5.38,8,39.55,39.55,0,0,1,16.52-5.32,28.74,28.74,0,0,0,15.4,24.19c20.54,11.64,46.05,3.26,60.4-18.26A54.66,54.66,0,0,0,184,89.35Z"/>
      </g>
    </g>
  </g>
</svg>
