<svg xmlns="http://www.w3.org/2000/svg" xmlns:xlink="http://www.w3.org/1999/xlink" width="48" height="97" viewBox="0 0 48 97">
  <defs>
    <style>
      .cls-1 {
        clip-path: url(#clip-Artboard_5);
      }

      .cls-2 {
        fill: #5299b9;
      }
    </style>
    <clipPath id="clip-Artboard_5">
      <rect width="48" height="97"/>
    </clipPath>
  </defs>
  <g id="Artboard_5" data-name="Artboard – 5" class="cls-1">
    <g id="Group_11" data-name="Group 11" transform="translate(-253 -260)">
      <path id="tint-solid" class="cls-2" d="M21.288,2.291a3.15,3.15,0,0,0-6.062,0C10.374,18.656,0,23.1,0,34.637A18.355,18.355,0,0,0,18.257,53.11,18.355,18.355,0,0,0,36.514,34.637c0-11.592-10.351-15.906-15.226-32.346Zm-3.031,44.18A11.632,11.632,0,0,1,6.639,34.854a1.66,1.66,0,1,1,3.319,0,8.308,8.308,0,0,0,8.3,8.3,1.66,1.66,0,1,1,0,3.319Z" transform="translate(265.185 278.019) rotate(13)"/>
    </g>
  </g>
</svg>
