<svg xmlns="http://www.w3.org/2000/svg" xmlns:xlink="http://www.w3.org/1999/xlink" width="360" height="319" viewBox="0 0 360 319">
  <defs>
    <style>
      .cls-1 {
        clip-path: url(#clip-Artboard_2);
      }

      .cls-2 {
        fill: #5299b9;
      }

      .cls-3 {
        fill: #67abc9;
      }

      .cls-4 {
        fill: #85bdd6;
      }

      .cls-5 {
        fill: #ce7f5c;
      }
    </style>
    <clipPath id="clip-Artboard_2">
      <rect width="360" height="319"/>
    </clipPath>
  </defs>
  <g id="Artboard_2" data-name="Artboard – 2" class="cls-1">
    <g id="Group_14" data-name="Group 14" transform="translate(-61 -95)">
      <path id="tint-solid" class="cls-2" d="M15.593,1.678a2.308,2.308,0,0,0-4.44,0C7.6,13.665,0,16.922,0,25.37A13.445,13.445,0,0,0,13.373,38.9,13.445,13.445,0,0,0,26.745,25.37c0-8.491-7.582-11.651-11.152-23.692Zm-2.22,32.361a8.52,8.52,0,0,1-8.51-8.51,1.216,1.216,0,1,1,2.431,0,6.086,6.086,0,0,0,6.078,6.078,1.216,1.216,0,0,1,0,2.431Z" transform="translate(230.486 199.049) rotate(21)"/>
      <path id="tint-solid-2" data-name="tint-solid" class="cls-3" d="M15.593,1.678a2.308,2.308,0,0,0-4.44,0C7.6,13.665,0,16.922,0,25.37A13.445,13.445,0,0,0,13.373,38.9,13.445,13.445,0,0,0,26.745,25.37c0-8.491-7.582-11.651-11.152-23.692Zm-2.22,32.361a8.52,8.52,0,0,1-8.51-8.51,1.216,1.216,0,1,1,2.431,0,6.086,6.086,0,0,0,6.078,6.078,1.216,1.216,0,0,1,0,2.431Z" transform="translate(249.486 254.049) rotate(21)"/>
      <path id="tint-solid-3" data-name="tint-solid" class="cls-3" d="M15.593,1.678a2.308,2.308,0,0,0-4.44,0C7.6,13.665,0,16.922,0,25.37A13.445,13.445,0,0,0,13.373,38.9,13.445,13.445,0,0,0,26.745,25.37c0-8.491-7.582-11.651-11.152-23.692Zm-2.22,32.361a8.52,8.52,0,0,1-8.51-8.51,1.216,1.216,0,1,1,2.431,0,6.086,6.086,0,0,0,6.078,6.078,1.216,1.216,0,0,1,0,2.431Z" transform="translate(174.486 239.049) rotate(21)"/>
      <path id="tint-solid-4" data-name="tint-solid" class="cls-4" d="M15.593,1.678a2.308,2.308,0,0,0-4.44,0C7.6,13.665,0,16.922,0,25.37A13.445,13.445,0,0,0,13.373,38.9,13.445,13.445,0,0,0,26.745,25.37c0-8.491-7.582-11.651-11.152-23.692Zm-2.22,32.361a8.52,8.52,0,0,1-8.51-8.51,1.216,1.216,0,1,1,2.431,0,6.086,6.086,0,0,0,6.078,6.078,1.216,1.216,0,0,1,0,2.431Z" transform="translate(193.486 295.049) rotate(21)"/>
      <path id="tint-solid-5" data-name="tint-solid" class="cls-4" d="M15.593,1.678a2.308,2.308,0,0,0-4.44,0C7.6,13.665,0,16.922,0,25.37A13.445,13.445,0,0,0,13.373,38.9,13.445,13.445,0,0,0,26.745,25.37c0-8.491-7.582-11.651-11.152-23.692Zm-2.22,32.361a8.52,8.52,0,0,1-8.51-8.51,1.216,1.216,0,1,1,2.431,0,6.086,6.086,0,0,0,6.078,6.078,1.216,1.216,0,0,1,0,2.431Z" transform="translate(129.486 300.049) rotate(21)"/>
      <path id="tint-solid-6" data-name="tint-solid" class="cls-4" d="M15.593,1.678a2.308,2.308,0,0,0-4.44,0C7.6,13.665,0,16.922,0,25.37A13.445,13.445,0,0,0,13.373,38.9,13.445,13.445,0,0,0,26.745,25.37c0-8.491-7.582-11.651-11.152-23.692Zm-2.22,32.361a8.52,8.52,0,0,1-8.51-8.51,1.216,1.216,0,1,1,2.431,0,6.086,6.086,0,0,0,6.078,6.078,1.216,1.216,0,0,1,0,2.431Z" transform="translate(263.486 312.049) rotate(21)"/>
      <path id="Path_11" data-name="Path 11" class="cls-5" d="M155.265,897.891c-.64.787-1.3,1.559-1.91,2.369a10.016,10.016,0,0,0-.866,1.44,1.22,1.22,0,0,0,.419,1.739,12.684,12.684,0,0,0,2.345,1.208l3.217.6,3.252-.126,3.226-.867a.675.675,0,0,1,1.162.167c.3.46.673.876,1.013,1.312a6.759,6.759,0,0,1,1.075,1.31,14.144,14.144,0,0,1,1.61,1.954,15.164,15.164,0,0,1,1.615,1.955,5.753,5.753,0,0,1,1.03,1.256c1.829,2.12,3.62,4.271,5.339,6.481l.116.15a32.4,32.4,0,0,1,2.559,3.1,2.468,2.468,0,0,1,.667.815,19.489,19.489,0,0,1,1.985,2.4,8.544,8.544,0,0,1,1.244,1.511,10.9,10.9,0,0,1,1.437,1.742c.575.671,1.163,1.332,1.723,2.016q3.136,3.832,6.257,7.676l.292.347a35.239,35.239,0,0,1,2.4,2.91,4.8,4.8,0,0,1,.864,1.062,16.449,16.449,0,0,1,1.773,2.154,11.381,11.381,0,0,1,1.449,1.76,9.2,9.2,0,0,1,1.247,1.5c1.785,2.109,3.579,4.211,5.256,6.409.3.334.61.659.9,1,.553.666,1.232,1.276,1.1,2.276l.476,3.251.453,3.212a8.009,8.009,0,0,1,.28,2.028,5.489,5.489,0,0,0,1.821,1.209l1.417.411,3.212.635,3.244.422,3.228.224,3.248.138,3.223.022,3.243-.058a23.963,23.963,0,0,1,3.233-.173,24.9,24.9,0,0,1,3.237-.316l3.235-.489,3.227-.846a.042.042,0,0,1,.072-.005,2.667,2.667,0,0,0,1.87-2.807,1.89,1.89,0,0,1,.079-.389q.165-1.276.331-2.551a.716.716,0,0,1,.373-.579c1.259-.715,2.509-1.445,3.762-2.17l6.456-4.26.189-.131,3.048-2.29a5.762,5.762,0,0,1,1.155-.946l2.08-1.8,1.492-1.429,1.734-1.828,1.171-1.41L271.7,941.6l.144-.272,1.361-3.217a22.16,22.16,0,0,0,.5-3.228,16.511,16.511,0,0,0-.468-3.254,12.627,12.627,0,0,0-3.606-5.233,22.539,22.539,0,0,0-4.385-2.8,36.439,36.439,0,0,0-6.467-1.928l-3.205-.362c-.239,0-.48-.011-.716.016-.635.073-.874-.158-.722-.809.14-.6.218-1.21.323-1.816a26.924,26.924,0,0,1,.473-3.229c.259-2.167.527-4.332.954-6.473a19.712,19.712,0,0,1,.479-3.237,2.684,2.684,0,0,0-.8-1.492,11.606,11.606,0,0,0-2.948-1.46c-1.175-.371-2.359-.711-3.539-1.065l-3.239-.616-3.213-.439-3.249-.335-3.229-.251c-.395,0-.792-.034-1.183,0-.642.054-.894-.182-.7-.82a28.033,28.033,0,0,1,.254-3.229,24.228,24.228,0,0,1,.192-3.237l.178-3.227a28.192,28.192,0,0,1,.15-3.245,24.646,24.646,0,0,1,.1-3.225,21.8,21.8,0,0,1,.041-3.242q-.059-1.615-.117-3.23l-.376-3.24c-.112-.328-.21-.663-.34-.983-.27-.661-.574-1.3-1.426-1.349-1.261.308-1.847,1.324-2.444,2.329l-.786,2.009a4.126,4.126,0,0,1-.365,1.233l-.838,3.223-.755,3.245a26.829,26.829,0,0,1-.65,3.233,19.871,19.871,0,0,1-.609,3.164l.032.038-.023.044a25.229,25.229,0,0,1-.54,3.229q-.248,1.614-.5,3.229c-.287,1.078-.085,2.2-.387,3.3-.193.7-.483.787-1.053.664l-.8.031-3.245.182-3.226.292-3.242.38-3.223.534-3.25.757a18.843,18.843,0,0,0-4.064,1.661,2.618,2.618,0,0,0-1.445,1.9,23.185,23.185,0,0,1,.481,3.24,25.565,25.565,0,0,1,.472,3.229,26.837,26.837,0,0,1,.477,3.245l.473,3.225.944,6.483a24.623,24.623,0,0,1,.451,3.217,19.617,19.617,0,0,1,.466,3.236,18.727,18.727,0,0,1,.472,3.245,2.463,2.463,0,0,1,.1,1.347l-1.213-1.358a3.981,3.981,0,0,1-.859-.936,21.21,21.21,0,0,1-2.127-2.271,6.335,6.335,0,0,1-1.092-1.163,17.53,17.53,0,0,1-1.95-2.087A8.2,8.2,0,0,1,197.289,927a16.04,16.04,0,0,1-1.73-1.84,11.738,11.738,0,0,1-1.487-1.6,10.576,10.576,0,0,1-1.5-1.6,16.228,16.228,0,0,1-1.718-1.829,8.043,8.043,0,0,1-1.322-1.422,17.5,17.5,0,0,1-1.941-2.074,6.459,6.459,0,0,1-1.1-1.175,22.684,22.684,0,0,1-2.115-2.263,4.629,4.629,0,0,1-.934-.981q-3.65-3.873-7.3-7.75c-1.6-1.707-3.166-3.437-4.747-5.157l.012.011c-.742-.625-.742-.625.011-1.905a18.922,18.922,0,0,0,.823-7.835,6.746,6.746,0,0,0-.852-2.174,1.772,1.772,0,0,0-.871-.114,11.29,11.29,0,0,0-2.3.725,56.059,56.059,0,0,0-6.5,4.134,2.841,2.841,0,0,1-.847.658l-2.378,1.978a8.83,8.83,0,0,1-1.409,1.282Zm74.407,2.018c-.319.011-.637.029-.956.032-1.159.01-1.159.008-.843-1.179a14.737,14.737,0,0,1,.372-2.7l.5-3.248c.285-2.169.719-4.312,1.148-6.456l.682-3.26a23.833,23.833,0,0,1,.744-3.214,12.4,12.4,0,0,1,1.055-3.239v3.24a26.181,26.181,0,0,1-.019,3.223,22.449,22.449,0,0,1-.123,3.246,20.533,20.533,0,0,1-.152,3.229,22.866,22.866,0,0,1-.178,3.243q-.1,1.611-.195,3.223a26.512,26.512,0,0,1-.255,3.244c.11.508-.074.73-.609.672C230.456,899.919,230.063,899.925,229.672,899.909Zm21.5,41.439a18.636,18.636,0,0,1,.473-3.241c.21-2.173.537-4.331.928-6.478l.456-3.212c.366-2.449-.274-2.486,2.525-2.267a10.782,10.782,0,0,1,3.25.435,9.455,9.455,0,0,1,2.338.567,13.6,13.6,0,0,1,5.8,3.332l.283.308a5.443,5.443,0,0,1,1.312,5.939,3.355,3.355,0,0,1-.517,1.388,10.145,10.145,0,0,1-1.542,2.721,43.407,43.407,0,0,1-10.905,9.94.755.755,0,0,1-.445.305,21.233,21.233,0,0,1-2.818,1.892,35.607,35.607,0,0,1-3.137,1.972,38.511,38.511,0,0,1,.577-3.889,23.467,23.467,0,0,1,.475-3.241,1.522,1.522,0,0,0,.141-.595,9.086,9.086,0,0,1,.333-2.639A20.4,20.4,0,0,1,251.173,941.349Z" transform="matrix(0.719, -0.695, 0.695, 0.719, -481.119, -341)"/>
    </g>
  </g>
</svg>
